<svg width="200" height="45" viewBox="0 0 200 45" fill="none" xmlns="http://www.w3.org/2000/svg">
<g clip-path="url(#clip0)">
<path d="M10 13.2615C10 10.4354 14.7059 10.3682 14.7059 13.1944V42.855C14.7059 45.7484 10 45.6812 10 42.855V13.2615Z" fill="#00BDEB"/>
<path d="M140.163 11.6484L138.834 11.0538L140.135 10.3781C141.832 9.48627 142.906 7.81063 142.906 5.99988C142.906 3.24319 140.559 1 137.675 1C134.791 1 132.443 3.24319 132.443 5.99988C132.443 7.81063 133.518 9.48627 135.215 10.3781L136.459 11.0268V11.0538L135.158 11.6484C133.066 12.5943 132.353 14.5402 132.353 16.7293L132.381 16.8645V17.2698L134.225 43.4594C134.225 43.4594 134.593 45 137.647 45C140.701 45 141.068 43.4594 141.068 43.4594L142.912 17.1347V16.9455C142.912 16.8645 142.912 16.8104 142.94 16.7293C142.969 14.5672 142.228 12.5673 140.163 11.6484Z" fill="#FF8133"/>
<path d="M19.557 13.6691C18.5656 10.9125 22.9309 9.33893 24.1251 11.9002C28.6931 20.9511 32.467 28.3559 37.097 37.4738L50.2042 11.7719C51.1956 9.34451 55.696 10.7228 54.5075 13.4124L39.2149 43.5059C38.3531 45.2135 36.1057 45.738 34.844 43.5729L19.557 13.6691Z" fill="#00BDEB"/>
<path d="M77.0113 11.1827C84.5768 13.2246 89.2596 19.2886 89.3963 27.7254V27.6581C89.5273 29.111 88.8608 30.6929 86.1149 30.6929H59.6701C60.5417 36.1005 65.2245 40.5826 71.9183 40.5826C75.0003 40.5826 78.2134 39.7916 80.8225 37.8115C83.1639 35.7022 86.6447 38.4061 84.0356 41.0426C80.9536 43.8754 76.4701 45.0647 72.1177 44.9973C66.8937 44.9973 61.6753 43.0172 58.5307 39.1297C51.3014 29.7673 54.446 14.6102 66.8994 11.1827C70.044 10.2571 73.6616 10.3245 76.943 11.1827H77.0113V11.1827ZM59.4764 26.6708H84.7135C84.2463 21.0668 80.7656 16.7811 75.5415 15.4628H75.6099C73.3995 14.8682 70.6536 14.8682 68.3806 15.5302C63.0198 16.9157 59.8751 21.3305 59.4764 26.6708Z" fill="#00BDEB"/>
<path d="M121.562 25.2083C121.562 19.1389 116.585 14.9167 111.144 14.9167C104.622 14.9167 98.5066 19.4028 98.5066 26.1965V42.625C98.5066 44.0792 97.6313 45 96.0867 45C94.542 45 93.5294 44.0736 93.5294 42.625V3.10345C93.5294 0.268053 98.5066 0.329814 98.5066 3.10345V16.9604C100.927 12.3396 106.173 10.4306 111.213 10.4306C119.01 10.4306 126.471 15.7084 126.471 25.2083V42.625C126.471 44.0792 125.595 45 124.051 45C122.569 45 121.562 44.0736 121.562 42.625V25.2083V25.2083Z" fill="#FF8133"/>
<path d="M152.951 16.6347C155.183 12.1958 159.369 11 163.346 11C164.949 11 166 11.7953 166 13.3182C166 14.7734 164.955 15.5743 163.346 15.5743C156.163 15.5743 153.094 21.0116 153.094 27.7011V42.6818C153.094 44.075 151.906 45 150.582 45C149.051 45 148 44.0693 148 42.6818V13.3182C148 10.4021 152.951 10.137 152.951 13.3182V16.6347V16.6347Z" fill="#FF8133"/>
<path d="M187.599 11.1827C195.165 13.2246 199.848 19.2886 199.984 27.7254V27.6581C200.115 29.111 199.449 30.6929 196.703 30.6929H170.258C171.13 36.1005 175.813 40.5826 182.506 40.5826C185.588 40.5826 188.801 39.7916 191.411 37.8115C193.752 35.7022 197.233 38.4061 194.624 41.0426C191.542 43.8754 187.058 45.0647 182.706 44.9973C177.482 44.9973 172.263 43.0172 169.119 39.1297C161.889 29.7673 165.034 14.6102 177.488 11.1827C180.632 10.2571 184.25 10.3245 187.531 11.1827H187.599V11.1827ZM170.064 26.6708H195.302C194.834 21.0668 191.354 16.7811 186.13 15.4628H186.198C183.988 14.8682 181.242 14.8682 178.969 15.5302C173.608 16.9157 170.463 21.3305 170.064 26.6708Z" fill="#FF8133"/>
<path d="M4.70588 42.7883C4.70588 44.0213 3.67476 45 2.38585 45C0.970794 45 0 44.0268 0 42.7883V2.21174C0 0.978695 0.965309 0 2.38585 0C3.67476 0 4.70588 0.973166 4.70588 2.21174V42.7883Z" fill="#00BDEB"/>
<ellipse cx="12.4485" cy="3.50627" rx="2.44847" ry="2.50627" fill="#00BDEB"/>
</g>
<defs>
<clipPath id="clip0">
<rect width="200" height="45" fill="white"/>
</clipPath>
</defs>
</svg>
