<svg width="297" height="1440.0000000000002" xmlns="http://www.w3.org/2000/svg">
    <!-- Created with Method Draw - http://github.com/duopixel/Method-Draw/ -->

    <g>
        <title>background</title>
        <rect fill="none" id="canvas_background" height="1442" width="299" y="-1" x="-1"/>
    </g>
    <g>
        <title>Layer 1</title>
        <g stroke="null" transform="rotate(90 187.99548339843741,719.5267944335939) " id="svg_15">
        <path stroke="null" id="svg_14" d="m-532.568254,629.825251l48.037579,-5.304149c48.037579,-5.704463 144.112738,-15.712292 240.187896,5.304149c96.075159,21.016441 192.150317,75.058718 288.225476,101.379308c96.075159,26.720903 192.150317,26.720903 288.225476,16.012526c96.075159,-10.308064 192.150317,-32.325288 288.225476,-53.341729c96.075159,-21.016441 192.150317,-43.033665 240.187896,-53.341729l48.037579,-10.708377l0,192.150317l-48.037579,0c-48.037579,0 -144.112738,0 -240.187896,0c-96.075159,0 -192.150317,0 -288.225476,0c-96.075159,0 -192.150317,0 -288.225476,0c-96.075159,0 -192.150317,0 -288.225476,0c-96.075159,0 -192.150317,0 -240.187896,0l-48.037579,0l0,-192.150317z" fill="#f2b830"/>
    </g>
    <g stroke="null" transform="rotate(90 120.29997253417959,719.3076782226564) " id="svg_10">
        <path stroke="null" id="svg_9" d="m-600.263621,629.606181l48.037575,-5.304149c48.037575,-5.704462 144.112725,-15.71229 240.187875,5.304149c96.07515,21.016439 192.1503,75.058711 288.22545,101.379299c96.07515,26.720901 192.1503,26.720901 288.22545,16.012525c96.07515,-10.308063 192.1503,-32.325285 288.22545,-53.341724c96.07515,-21.016439 192.1503,-43.033661 240.187875,-53.341724l48.037575,-10.708376l0,192.1503l-48.037575,0c-48.037575,0 -144.112725,0 -240.187875,0c-96.07515,0 -192.1503,0 -288.22545,0c-96.07515,0 -192.1503,0 -288.22545,0c-96.07515,0 -192.1503,0 -288.22545,0c-96.07515,0 -192.1503,0 -240.187875,0l-48.037575,0l0,-192.1503z" fill="#ec4982"/>
    </g>
    <g stroke="null" transform="rotate(90 58.05186462402333,720.0949707031251) " id="svg_5">
        <path stroke="null" id="svg_4" d="m-661.947487,630.463687l47.999955,-5.299995c47.999955,-5.699995 143.999865,-15.699985 239.999774,5.299995c95.99991,20.99998 191.999819,74.999929 287.999729,101.299905c95.99991,26.699975 191.999819,26.699975 287.999729,15.999985c95.99991,-10.29999 191.999819,-32.29997 287.999729,-53.29995c95.99991,-20.99998 191.999819,-42.99996 239.999774,-53.29995l47.999955,-10.69999l0,191.999819l-47.999955,0c-47.999955,0 -143.999865,0 -239.999774,0c-95.99991,0 -191.999819,0 -287.999729,0c-95.99991,0 -191.999819,0 -287.999729,0c-95.99991,0 -191.999819,0 -287.999729,0c-95.99991,0 -191.999819,0 -239.999774,0l-47.999955,0l0,-191.999819z" fill="#213282"/>
    </g>
    </g>
</svg>